<mxfile host="65bd71144e">
    <diagram id="UjZBs9e8TkvDW5uaXQ9G" name="Page-1">
        <mxGraphModel dx="901" dy="475" grid="1" gridSize="10" guides="1" tooltips="1" connect="1" arrows="1" fold="1" page="1" pageScale="1" pageWidth="850" pageHeight="1100" math="0" shadow="0">
            <root>
                <mxCell id="0"/>
                <mxCell id="1" parent="0"/>
                <mxCell id="3" value="項目一覧" style="whiteSpace=wrap;html=1;align=center;" vertex="1" parent="1">
                    <mxGeometry x="175" y="40" width="100" height="30" as="geometry"/>
                </mxCell>
                <mxCell id="4" value="カレンダー一覧" style="whiteSpace=wrap;html=1;align=center;" vertex="1" parent="1">
                    <mxGeometry x="275" y="40" width="100" height="30" as="geometry"/>
                </mxCell>
                <mxCell id="5" value="グラフ" style="whiteSpace=wrap;html=1;align=center;" vertex="1" parent="1">
                    <mxGeometry x="370" y="40" width="100" height="30" as="geometry"/>
                </mxCell>
                <mxCell id="6" value="アカウント管理" style="whiteSpace=wrap;html=1;align=center;" vertex="1" parent="1">
                    <mxGeometry x="570" y="40" width="100" height="30" as="geometry"/>
                </mxCell>
                <mxCell id="7" value="詳細" style="whiteSpace=wrap;html=1;align=center;" vertex="1" parent="1">
                    <mxGeometry x="75" y="160" width="100" height="30" as="geometry"/>
                </mxCell>
                <mxCell id="8" value="収入支出&lt;br&gt;一覧画面" style="shape=ext;margin=3;double=1;whiteSpace=wrap;html=1;align=center;" vertex="1" parent="1">
                    <mxGeometry x="75" y="120" width="100" height="40" as="geometry"/>
                </mxCell>
                <mxCell id="9" value="グローバルナビゲーション（ログイン中）" style="shape=ext;margin=3;double=1;whiteSpace=wrap;html=1;align=center;" vertex="1" parent="1">
                    <mxGeometry x="70" width="700" height="40" as="geometry"/>
                </mxCell>
                <mxCell id="10" value="編集" style="whiteSpace=wrap;html=1;align=center;" vertex="1" parent="1">
                    <mxGeometry x="75" y="190" width="100" height="30" as="geometry"/>
                </mxCell>
                <mxCell id="11" value="削除" style="whiteSpace=wrap;html=1;align=center;" vertex="1" parent="1">
                    <mxGeometry x="75" y="220" width="100" height="30" as="geometry"/>
                </mxCell>
                <mxCell id="12" value="編集" style="whiteSpace=wrap;html=1;align=center;" vertex="1" parent="1">
                    <mxGeometry x="70" y="420" width="100" height="30" as="geometry"/>
                </mxCell>
                <mxCell id="13" value="詳細画面" style="shape=ext;margin=3;double=1;whiteSpace=wrap;html=1;align=center;" vertex="1" parent="1">
                    <mxGeometry x="70" y="390" width="100" height="30" as="geometry"/>
                </mxCell>
                <mxCell id="14" value="更新" style="whiteSpace=wrap;html=1;align=center;" vertex="1" parent="1">
                    <mxGeometry x="70" y="530" width="100" height="30" as="geometry"/>
                </mxCell>
                <mxCell id="15" value="編集画面" style="shape=ext;margin=3;double=1;whiteSpace=wrap;html=1;align=center;" vertex="1" parent="1">
                    <mxGeometry x="70" y="500" width="100" height="30" as="geometry"/>
                </mxCell>
                <mxCell id="16" value="戻る" style="whiteSpace=wrap;html=1;align=center;" vertex="1" parent="1">
                    <mxGeometry x="70" y="560" width="100" height="30" as="geometry"/>
                </mxCell>
                <mxCell id="17" value="" style="endArrow=classic;html=1;exitX=0.5;exitY=1;exitDx=0;exitDy=0;entryX=0.5;entryY=0;entryDx=0;entryDy=0;edgeStyle=orthogonalEdgeStyle;" edge="1" parent="1" source="71" target="8">
                    <mxGeometry width="50" height="50" relative="1" as="geometry">
                        <mxPoint x="270" y="290" as="sourcePoint"/>
                        <mxPoint x="320" y="240" as="targetPoint"/>
                    </mxGeometry>
                </mxCell>
                <mxCell id="18" value="" style="endArrow=classic;html=1;exitX=1;exitY=0.5;exitDx=0;exitDy=0;entryX=1;entryY=0.5;entryDx=0;entryDy=0;edgeStyle=orthogonalEdgeStyle;" edge="1" parent="1" source="7" target="13">
                    <mxGeometry width="50" height="50" relative="1" as="geometry">
                        <mxPoint x="235" y="80" as="sourcePoint"/>
                        <mxPoint x="135" y="140" as="targetPoint"/>
                        <Array as="points">
                            <mxPoint x="190" y="175"/>
                            <mxPoint x="190" y="405"/>
                        </Array>
                    </mxGeometry>
                </mxCell>
                <mxCell id="19" value="" style="endArrow=classic;html=1;exitX=1;exitY=0.5;exitDx=0;exitDy=0;entryX=1;entryY=0.5;entryDx=0;entryDy=0;edgeStyle=orthogonalEdgeStyle;" edge="1" parent="1" source="14" target="8">
                    <mxGeometry width="50" height="50" relative="1" as="geometry">
                        <mxPoint x="235" y="80" as="sourcePoint"/>
                        <mxPoint x="135" y="140" as="targetPoint"/>
                        <Array as="points">
                            <mxPoint x="200" y="545"/>
                            <mxPoint x="200" y="145"/>
                        </Array>
                    </mxGeometry>
                </mxCell>
                <mxCell id="20" value="戻る" style="whiteSpace=wrap;html=1;align=center;" vertex="1" parent="1">
                    <mxGeometry x="70" y="450" width="100" height="30" as="geometry"/>
                </mxCell>
                <mxCell id="21" value="" style="endArrow=classic;html=1;exitX=0;exitY=0.5;exitDx=0;exitDy=0;entryX=0;entryY=0.5;entryDx=0;entryDy=0;edgeStyle=orthogonalEdgeStyle;" edge="1" parent="1" source="10" target="15">
                    <mxGeometry width="50" height="50" relative="1" as="geometry">
                        <mxPoint x="235" y="80" as="sourcePoint"/>
                        <mxPoint x="135" y="140" as="targetPoint"/>
                        <Array as="points">
                            <mxPoint x="40" y="205"/>
                            <mxPoint x="40" y="515"/>
                        </Array>
                    </mxGeometry>
                </mxCell>
                <mxCell id="22" value="" style="endArrow=classic;html=1;exitX=0;exitY=0.5;exitDx=0;exitDy=0;entryX=0;entryY=0.25;entryDx=0;entryDy=0;edgeStyle=orthogonalEdgeStyle;" edge="1" parent="1" source="12" target="15">
                    <mxGeometry width="50" height="50" relative="1" as="geometry">
                        <mxPoint x="235" y="110" as="sourcePoint"/>
                        <mxPoint x="135" y="170" as="targetPoint"/>
                    </mxGeometry>
                </mxCell>
                <mxCell id="23" value="" style="endArrow=classic;html=1;exitX=1;exitY=0.5;exitDx=0;exitDy=0;entryX=1;entryY=0.25;entryDx=0;entryDy=0;edgeStyle=orthogonalEdgeStyle;" edge="1" parent="1" source="20" target="8">
                    <mxGeometry width="50" height="50" relative="1" as="geometry">
                        <mxPoint x="235" y="80" as="sourcePoint"/>
                        <mxPoint x="135" y="140" as="targetPoint"/>
                        <Array as="points">
                            <mxPoint x="200" y="465"/>
                            <mxPoint x="200" y="138"/>
                        </Array>
                    </mxGeometry>
                </mxCell>
                <mxCell id="24" value="失敗" style="text;html=1;strokeColor=none;fillColor=none;align=center;verticalAlign=middle;whiteSpace=wrap;rounded=0;" vertex="1" parent="1">
                    <mxGeometry x="20" y="550" width="60" height="30" as="geometry"/>
                </mxCell>
                <mxCell id="25" value="成功" style="text;html=1;strokeColor=none;fillColor=none;align=center;verticalAlign=middle;whiteSpace=wrap;rounded=0;" vertex="1" parent="1">
                    <mxGeometry x="160" y="540" width="60" height="30" as="geometry"/>
                </mxCell>
                <mxCell id="26" value="新規登録" style="whiteSpace=wrap;html=1;align=center;" vertex="1" parent="1">
                    <mxGeometry x="75" y="250" width="100" height="30" as="geometry"/>
                </mxCell>
                <mxCell id="27" value="" style="endArrow=classic;html=1;exitX=0;exitY=0.5;exitDx=0;exitDy=0;entryX=0;entryY=0.5;entryDx=0;entryDy=0;edgeStyle=orthogonalEdgeStyle;" edge="1" parent="1" source="26" target="73">
                    <mxGeometry width="50" height="50" relative="1" as="geometry">
                        <mxPoint x="235" y="80" as="sourcePoint"/>
                        <mxPoint x="135" y="140" as="targetPoint"/>
                        <Array as="points">
                            <mxPoint x="50" y="265"/>
                            <mxPoint x="50" y="325"/>
                        </Array>
                    </mxGeometry>
                </mxCell>
                <mxCell id="28" value="" style="endArrow=classic;html=1;exitX=0;exitY=0.5;exitDx=0;exitDy=0;entryX=0;entryY=0.5;entryDx=0;entryDy=0;edgeStyle=orthogonalEdgeStyle;" edge="1" parent="1" source="72" target="13">
                    <mxGeometry width="50" height="50" relative="1" as="geometry">
                        <mxPoint x="235" y="80" as="sourcePoint"/>
                        <mxPoint x="135" y="140" as="targetPoint"/>
                    </mxGeometry>
                </mxCell>
                <mxCell id="29" value="" style="endArrow=classic;html=1;entryX=1;entryY=0.5;entryDx=0;entryDy=0;edgeStyle=orthogonalEdgeStyle;exitX=1;exitY=0.75;exitDx=0;exitDy=0;" edge="1" parent="1" source="16" target="13">
                    <mxGeometry width="50" height="50" relative="1" as="geometry">
                        <mxPoint x="235" y="510" as="sourcePoint"/>
                        <mxPoint x="135" y="140" as="targetPoint"/>
                        <Array as="points">
                            <mxPoint x="220" y="583"/>
                            <mxPoint x="220" y="405"/>
                        </Array>
                    </mxGeometry>
                </mxCell>
                <mxCell id="30" value="" style="endArrow=classic;html=1;exitX=0;exitY=0.5;exitDx=0;exitDy=0;entryX=0;entryY=0.5;entryDx=0;entryDy=0;edgeStyle=orthogonalEdgeStyle;" edge="1" parent="1" source="14" target="15">
                    <mxGeometry width="50" height="50" relative="1" as="geometry">
                        <mxPoint x="235" y="80" as="sourcePoint"/>
                        <mxPoint x="135" y="140" as="targetPoint"/>
                    </mxGeometry>
                </mxCell>
                <mxCell id="31" value="カレンダー&lt;br&gt;一覧画面" style="shape=ext;margin=3;double=1;whiteSpace=wrap;html=1;align=center;" vertex="1" parent="1">
                    <mxGeometry x="440" y="120" width="100" height="40" as="geometry"/>
                </mxCell>
                <mxCell id="32" value="詳細" style="whiteSpace=wrap;html=1;align=center;" vertex="1" parent="1">
                    <mxGeometry x="440" y="160" width="100" height="30" as="geometry"/>
                </mxCell>
                <mxCell id="33" value="編集" style="whiteSpace=wrap;html=1;align=center;" vertex="1" parent="1">
                    <mxGeometry x="440" y="190" width="100" height="30" as="geometry"/>
                </mxCell>
                <mxCell id="34" value="" style="endArrow=classic;html=1;exitX=0.75;exitY=1;exitDx=0;exitDy=0;edgeStyle=orthogonalEdgeStyle;" edge="1" parent="1" source="4" target="31">
                    <mxGeometry width="50" height="50" relative="1" as="geometry">
                        <mxPoint x="235" y="80" as="sourcePoint"/>
                        <mxPoint x="135" y="130" as="targetPoint"/>
                        <Array as="points">
                            <mxPoint x="350" y="110"/>
                            <mxPoint x="490" y="110"/>
                        </Array>
                    </mxGeometry>
                </mxCell>
                <mxCell id="35" value="" style="endArrow=classic;html=1;exitX=0;exitY=0.25;exitDx=0;exitDy=0;edgeStyle=orthogonalEdgeStyle;entryX=1;entryY=0.5;entryDx=0;entryDy=0;" edge="1" parent="1" source="32" target="13">
                    <mxGeometry width="50" height="50" relative="1" as="geometry">
                        <mxPoint x="335" y="80" as="sourcePoint"/>
                        <mxPoint x="335" y="130" as="targetPoint"/>
                        <Array as="points">
                            <mxPoint x="420" y="168"/>
                            <mxPoint x="420" y="470"/>
                            <mxPoint x="220" y="470"/>
                            <mxPoint x="220" y="405"/>
                        </Array>
                    </mxGeometry>
                </mxCell>
                <mxCell id="36" value="" style="endArrow=classic;html=1;exitX=0;exitY=0.5;exitDx=0;exitDy=0;edgeStyle=orthogonalEdgeStyle;entryX=1;entryY=0.5;entryDx=0;entryDy=0;" edge="1" parent="1" source="33" target="15">
                    <mxGeometry width="50" height="50" relative="1" as="geometry">
                        <mxPoint x="285" y="307.5" as="sourcePoint"/>
                        <mxPoint x="180" y="415" as="targetPoint"/>
                        <Array as="points">
                            <mxPoint x="430" y="205"/>
                            <mxPoint x="430" y="515"/>
                        </Array>
                    </mxGeometry>
                </mxCell>
                <mxCell id="37" value="月別棒折れ線&lt;br&gt;グラフ" style="whiteSpace=wrap;html=1;align=center;" vertex="1" parent="1">
                    <mxGeometry x="480" y="281" width="100" height="30" as="geometry"/>
                </mxCell>
                <mxCell id="38" value="月別円グラフ画面" style="shape=ext;margin=3;double=1;whiteSpace=wrap;html=1;align=center;" vertex="1" parent="1">
                    <mxGeometry x="480" y="241" width="100" height="40" as="geometry"/>
                </mxCell>
                <mxCell id="39" value="ログイン" style="whiteSpace=wrap;html=1;align=center;" vertex="1" parent="1">
                    <mxGeometry x="960" y="170" width="100" height="30" as="geometry"/>
                </mxCell>
                <mxCell id="40" value="ログイン画面" style="shape=ext;margin=3;double=1;whiteSpace=wrap;html=1;align=center;" vertex="1" parent="1">
                    <mxGeometry x="960" y="130" width="100" height="40" as="geometry"/>
                </mxCell>
                <mxCell id="41" value="グローバルナビゲーション（ログアウト中）" style="shape=ext;margin=3;double=1;whiteSpace=wrap;html=1;align=center;" vertex="1" parent="1">
                    <mxGeometry x="960" width="200" height="40" as="geometry"/>
                </mxCell>
                <mxCell id="42" value="" style="edgeStyle=none;html=1;fontSize=10;" edge="1" parent="1" source="43" target="40">
                    <mxGeometry relative="1" as="geometry"/>
                </mxCell>
                <mxCell id="43" value="ログイン" style="whiteSpace=wrap;html=1;align=center;" vertex="1" parent="1">
                    <mxGeometry x="960" y="40" width="100" height="30" as="geometry"/>
                </mxCell>
                <mxCell id="44" value="アカウント登録" style="whiteSpace=wrap;html=1;align=center;" vertex="1" parent="1">
                    <mxGeometry x="1060" y="40" width="100" height="30" as="geometry"/>
                </mxCell>
                <mxCell id="45" value="" style="endArrow=classic;html=1;exitX=1;exitY=0.5;exitDx=0;exitDy=0;edgeStyle=orthogonalEdgeStyle;entryX=1;entryY=0.5;entryDx=0;entryDy=0;" edge="1" parent="1" source="39" target="40">
                    <mxGeometry width="50" height="50" relative="1" as="geometry">
                        <mxPoint x="890" y="90" as="sourcePoint"/>
                        <mxPoint x="1010" y="140" as="targetPoint"/>
                        <Array as="points">
                            <mxPoint x="1080" y="185"/>
                            <mxPoint x="1080" y="150"/>
                        </Array>
                    </mxGeometry>
                </mxCell>
                <mxCell id="46" value="失敗" style="text;html=1;strokeColor=none;fillColor=none;align=center;verticalAlign=middle;whiteSpace=wrap;rounded=0;" vertex="1" parent="1">
                    <mxGeometry x="1050" y="180" width="60" height="30" as="geometry"/>
                </mxCell>
                <mxCell id="47" value="" style="endArrow=classic;html=1;exitX=0.833;exitY=0;exitDx=0;exitDy=0;edgeStyle=orthogonalEdgeStyle;entryX=0;entryY=0.5;entryDx=0;entryDy=0;exitPerimeter=0;" edge="1" parent="1" source="48" target="8">
                    <mxGeometry width="50" height="50" relative="1" as="geometry">
                        <mxPoint x="660" y="80" as="sourcePoint"/>
                        <mxPoint x="685" y="130" as="targetPoint"/>
                        <Array as="points">
                            <mxPoint x="1010" y="620"/>
                            <mxPoint x="20" y="620"/>
                            <mxPoint x="20" y="140"/>
                        </Array>
                    </mxGeometry>
                </mxCell>
                <mxCell id="48" value="成功" style="text;html=1;strokeColor=none;fillColor=none;align=center;verticalAlign=middle;whiteSpace=wrap;rounded=0;" vertex="1" parent="1">
                    <mxGeometry x="960" y="200" width="60" height="30" as="geometry"/>
                </mxCell>
                <mxCell id="49" value="&lt;font style=&quot;font-size: 10px;&quot;&gt;成功&lt;/font&gt;" style="text;html=1;strokeColor=none;fillColor=none;align=center;verticalAlign=middle;whiteSpace=wrap;rounded=0;" vertex="1" parent="1">
                    <mxGeometry x="46" y="364" width="60" height="30" as="geometry"/>
                </mxCell>
                <mxCell id="50" value="&lt;font style=&quot;font-size: 10px;&quot;&gt;失敗&lt;/font&gt;" style="text;html=1;strokeColor=none;fillColor=none;align=center;verticalAlign=middle;whiteSpace=wrap;rounded=0;" vertex="1" parent="1">
                    <mxGeometry x="151" y="341" width="60" height="30" as="geometry"/>
                </mxCell>
                <mxCell id="51" value="ログアウト" style="whiteSpace=wrap;html=1;align=center;" vertex="1" parent="1">
                    <mxGeometry x="670" y="40" width="100" height="30" as="geometry"/>
                </mxCell>
                <mxCell id="52" value="編集" style="whiteSpace=wrap;html=1;align=center;" vertex="1" parent="1">
                    <mxGeometry x="785" y="160" width="100" height="30" as="geometry"/>
                </mxCell>
                <mxCell id="53" value="アカウント詳細画面" style="shape=ext;margin=3;double=1;whiteSpace=wrap;html=1;align=center;" vertex="1" parent="1">
                    <mxGeometry x="785" y="120" width="100" height="40" as="geometry"/>
                </mxCell>
                <mxCell id="54" value="更新" style="whiteSpace=wrap;html=1;align=center;" vertex="1" parent="1">
                    <mxGeometry x="785" y="270" width="100" height="30" as="geometry"/>
                </mxCell>
                <mxCell id="55" value="アカウント編集画面" style="shape=ext;margin=3;double=1;whiteSpace=wrap;html=1;align=center;" vertex="1" parent="1">
                    <mxGeometry x="785" y="230" width="100" height="40" as="geometry"/>
                </mxCell>
                <mxCell id="56" value="戻る" style="whiteSpace=wrap;html=1;align=center;" vertex="1" parent="1">
                    <mxGeometry x="785" y="300" width="100" height="30" as="geometry"/>
                </mxCell>
                <mxCell id="57" value="" style="endArrow=classic;html=1;exitX=0.82;exitY=1.033;exitDx=0;exitDy=0;edgeStyle=orthogonalEdgeStyle;entryX=0.5;entryY=0;entryDx=0;entryDy=0;exitPerimeter=0;" edge="1" parent="1" source="6" target="53">
                    <mxGeometry width="50" height="50" relative="1" as="geometry">
                        <mxPoint x="430" y="80" as="sourcePoint"/>
                        <mxPoint x="503" y="130" as="targetPoint"/>
                        <Array as="points">
                            <mxPoint x="652" y="90"/>
                            <mxPoint x="835" y="90"/>
                        </Array>
                    </mxGeometry>
                </mxCell>
                <mxCell id="58" value="" style="endArrow=classic;html=1;exitX=0.5;exitY=1;exitDx=0;exitDy=0;edgeStyle=orthogonalEdgeStyle;entryX=0.5;entryY=0;entryDx=0;entryDy=0;" edge="1" parent="1" source="52" target="55">
                    <mxGeometry width="50" height="50" relative="1" as="geometry">
                        <mxPoint x="695" y="80" as="sourcePoint"/>
                        <mxPoint x="845" y="130" as="targetPoint"/>
                    </mxGeometry>
                </mxCell>
                <mxCell id="59" value="" style="endArrow=classic;html=1;edgeStyle=orthogonalEdgeStyle;entryX=0;entryY=0.5;entryDx=0;entryDy=0;exitX=0;exitY=0.5;exitDx=0;exitDy=0;" edge="1" parent="1" source="54" target="53">
                    <mxGeometry width="50" height="50" relative="1" as="geometry">
                        <mxPoint x="835" y="200" as="sourcePoint"/>
                        <mxPoint x="845" y="240" as="targetPoint"/>
                        <Array as="points">
                            <mxPoint x="765" y="285"/>
                            <mxPoint x="765" y="140"/>
                        </Array>
                    </mxGeometry>
                </mxCell>
                <mxCell id="60" value="" style="endArrow=classic;html=1;edgeStyle=orthogonalEdgeStyle;entryX=1;entryY=0.5;entryDx=0;entryDy=0;exitX=1;exitY=0.5;exitDx=0;exitDy=0;" edge="1" parent="1" source="54" target="55">
                    <mxGeometry width="50" height="50" relative="1" as="geometry">
                        <mxPoint x="695" y="80" as="sourcePoint"/>
                        <mxPoint x="845" y="130" as="targetPoint"/>
                        <Array as="points">
                            <mxPoint x="895" y="285"/>
                            <mxPoint x="895" y="250"/>
                        </Array>
                    </mxGeometry>
                </mxCell>
                <mxCell id="61" value="" style="endArrow=classic;html=1;exitX=1;exitY=0.75;exitDx=0;exitDy=0;edgeStyle=orthogonalEdgeStyle;entryX=1;entryY=0.5;entryDx=0;entryDy=0;" edge="1" parent="1" source="56" target="53">
                    <mxGeometry width="50" height="50" relative="1" as="geometry">
                        <mxPoint x="695" y="80" as="sourcePoint"/>
                        <mxPoint x="845" y="130" as="targetPoint"/>
                        <Array as="points">
                            <mxPoint x="925" y="323"/>
                            <mxPoint x="925" y="140"/>
                        </Array>
                    </mxGeometry>
                </mxCell>
                <mxCell id="62" value="成功" style="text;html=1;strokeColor=none;fillColor=none;align=center;verticalAlign=middle;whiteSpace=wrap;rounded=0;" vertex="1" parent="1">
                    <mxGeometry x="735" y="280" width="60" height="30" as="geometry"/>
                </mxCell>
                <mxCell id="63" value="失敗" style="text;html=1;strokeColor=none;fillColor=none;align=center;verticalAlign=middle;whiteSpace=wrap;rounded=0;" vertex="1" parent="1">
                    <mxGeometry x="875" y="280" width="60" height="30" as="geometry"/>
                </mxCell>
                <mxCell id="64" value="登録" style="whiteSpace=wrap;html=1;align=center;" vertex="1" parent="1">
                    <mxGeometry x="1130" y="160" width="100" height="30" as="geometry"/>
                </mxCell>
                <mxCell id="65" value="アカウント登録画面" style="shape=ext;margin=3;double=1;whiteSpace=wrap;html=1;align=center;" vertex="1" parent="1">
                    <mxGeometry x="1130" y="120" width="100" height="40" as="geometry"/>
                </mxCell>
                <mxCell id="66" value="" style="endArrow=classic;html=1;exitX=0.5;exitY=1;exitDx=0;exitDy=0;edgeStyle=orthogonalEdgeStyle;entryX=0.5;entryY=0;entryDx=0;entryDy=0;" edge="1" parent="1" source="44" target="65">
                    <mxGeometry width="50" height="50" relative="1" as="geometry">
                        <mxPoint x="680" y="80" as="sourcePoint"/>
                        <mxPoint x="830" y="130" as="targetPoint"/>
                    </mxGeometry>
                </mxCell>
                <mxCell id="67" value="" style="endArrow=classic;html=1;exitX=1;exitY=0.5;exitDx=0;exitDy=0;edgeStyle=orthogonalEdgeStyle;entryX=0.33;entryY=0.05;entryDx=0;entryDy=0;entryPerimeter=0;" edge="1" parent="1" source="51" target="40">
                    <mxGeometry width="50" height="50" relative="1" as="geometry">
                        <mxPoint x="530" y="80" as="sourcePoint"/>
                        <mxPoint x="680" y="130" as="targetPoint"/>
                        <Array as="points">
                            <mxPoint x="860" y="55"/>
                            <mxPoint x="860" y="80"/>
                            <mxPoint x="993" y="80"/>
                        </Array>
                    </mxGeometry>
                </mxCell>
                <mxCell id="68" value="" style="endArrow=classic;html=1;exitX=0.5;exitY=1;exitDx=0;exitDy=0;edgeStyle=orthogonalEdgeStyle;entryX=0;entryY=0.25;entryDx=0;entryDy=0;" edge="1" parent="1" source="64" target="8">
                    <mxGeometry width="50" height="50" relative="1" as="geometry">
                        <mxPoint x="670" y="90" as="sourcePoint"/>
                        <mxPoint x="85" y="150" as="targetPoint"/>
                        <Array as="points">
                            <mxPoint x="1180" y="640"/>
                            <mxPoint x="10" y="640"/>
                            <mxPoint x="10" y="130"/>
                        </Array>
                    </mxGeometry>
                </mxCell>
                <mxCell id="69" value="成功" style="text;html=1;strokeColor=none;fillColor=none;align=center;verticalAlign=middle;whiteSpace=wrap;rounded=0;" vertex="1" parent="1">
                    <mxGeometry x="1130" y="190" width="60" height="30" as="geometry"/>
                </mxCell>
                <mxCell id="70" value="" style="endArrow=classic;html=1;exitX=0;exitY=0.5;exitDx=0;exitDy=0;entryX=0;entryY=0.75;entryDx=0;entryDy=0;edgeStyle=orthogonalEdgeStyle;" edge="1" parent="1" source="11" target="8">
                    <mxGeometry width="50" height="50" relative="1" as="geometry">
                        <mxPoint x="235" y="80" as="sourcePoint"/>
                        <mxPoint x="135" y="130" as="targetPoint"/>
                        <Array as="points">
                            <mxPoint x="60" y="235"/>
                            <mxPoint x="60" y="150"/>
                        </Array>
                    </mxGeometry>
                </mxCell>
                <mxCell id="71" value="収入支出一覧" style="whiteSpace=wrap;html=1;align=center;" vertex="1" parent="1">
                    <mxGeometry x="74" y="40" width="100" height="30" as="geometry"/>
                </mxCell>
                <mxCell id="72" value="登録" style="whiteSpace=wrap;html=1;align=center;" vertex="1" parent="1">
                    <mxGeometry x="70" y="340" width="100" height="30" as="geometry"/>
                </mxCell>
                <mxCell id="73" value="登録画面" style="shape=ext;margin=3;double=1;whiteSpace=wrap;html=1;align=center;" vertex="1" parent="1">
                    <mxGeometry x="70" y="310" width="100" height="30" as="geometry"/>
                </mxCell>
                <mxCell id="74" value="" style="endArrow=classic;html=1;exitX=1;exitY=0.25;exitDx=0;exitDy=0;entryX=1;entryY=0.5;entryDx=0;entryDy=0;edgeStyle=orthogonalEdgeStyle;" edge="1" parent="1" source="72" target="73">
                    <mxGeometry width="50" height="50" relative="1" as="geometry">
                        <mxPoint x="235" y="80" as="sourcePoint"/>
                        <mxPoint x="135" y="130" as="targetPoint"/>
                    </mxGeometry>
                </mxCell>
                <mxCell id="75" value="項目一覧画面" style="shape=ext;margin=3;double=1;whiteSpace=wrap;html=1;align=center;" vertex="1" parent="1">
                    <mxGeometry x="280" y="121" width="100" height="40" as="geometry"/>
                </mxCell>
                <mxCell id="76" value="編集" style="whiteSpace=wrap;html=1;align=center;" vertex="1" parent="1">
                    <mxGeometry x="280" y="161" width="100" height="30" as="geometry"/>
                </mxCell>
                <mxCell id="77" value="削除" style="whiteSpace=wrap;html=1;align=center;" vertex="1" parent="1">
                    <mxGeometry x="280" y="191" width="100" height="30" as="geometry"/>
                </mxCell>
                <mxCell id="78" value="更新" style="whiteSpace=wrap;html=1;align=center;" vertex="1" parent="1">
                    <mxGeometry x="280" y="394" width="100" height="30" as="geometry"/>
                </mxCell>
                <mxCell id="79" value="項目編集画面" style="shape=ext;margin=3;double=1;whiteSpace=wrap;html=1;align=center;" vertex="1" parent="1">
                    <mxGeometry x="280" y="364" width="100" height="30" as="geometry"/>
                </mxCell>
                <mxCell id="80" value="戻る" style="whiteSpace=wrap;html=1;align=center;" vertex="1" parent="1">
                    <mxGeometry x="280" y="424" width="100" height="30" as="geometry"/>
                </mxCell>
                <mxCell id="81" value="" style="endArrow=classic;html=1;entryX=0;entryY=0.25;entryDx=0;entryDy=0;edgeStyle=orthogonalEdgeStyle;exitX=0;exitY=0.5;exitDx=0;exitDy=0;" edge="1" parent="1" source="80" target="75">
                    <mxGeometry width="50" height="50" relative="1" as="geometry">
                        <mxPoint x="280" y="454" as="sourcePoint"/>
                        <mxPoint x="340" y="171" as="targetPoint"/>
                        <Array as="points">
                            <mxPoint x="280" y="440"/>
                            <mxPoint x="230" y="440"/>
                            <mxPoint x="230" y="131"/>
                        </Array>
                    </mxGeometry>
                </mxCell>
                <mxCell id="82" value="新規登録" style="whiteSpace=wrap;html=1;align=center;" vertex="1" parent="1">
                    <mxGeometry x="280" y="221" width="100" height="30" as="geometry"/>
                </mxCell>
                <mxCell id="83" value="" style="endArrow=classic;html=1;exitX=0;exitY=0.5;exitDx=0;exitDy=0;entryX=0;entryY=0.5;entryDx=0;entryDy=0;edgeStyle=orthogonalEdgeStyle;" edge="1" parent="1" source="86" target="75">
                    <mxGeometry width="50" height="50" relative="1" as="geometry">
                        <mxPoint x="440" y="81" as="sourcePoint"/>
                        <mxPoint x="275" y="406" as="targetPoint"/>
                        <Array as="points">
                            <mxPoint x="250" y="320"/>
                            <mxPoint x="250" y="141"/>
                        </Array>
                    </mxGeometry>
                </mxCell>
                <mxCell id="84" value="" style="endArrow=classic;html=1;exitX=0;exitY=0.5;exitDx=0;exitDy=0;entryX=0;entryY=0.5;entryDx=0;entryDy=0;edgeStyle=orthogonalEdgeStyle;" edge="1" parent="1" source="78" target="79">
                    <mxGeometry width="50" height="50" relative="1" as="geometry">
                        <mxPoint x="445" y="-56" as="sourcePoint"/>
                        <mxPoint x="345" y="4" as="targetPoint"/>
                    </mxGeometry>
                </mxCell>
                <mxCell id="85" value="" style="endArrow=classic;html=1;exitX=0;exitY=0.5;exitDx=0;exitDy=0;entryX=0;entryY=0.75;entryDx=0;entryDy=0;edgeStyle=orthogonalEdgeStyle;" edge="1" parent="1" source="77" target="75">
                    <mxGeometry width="50" height="50" relative="1" as="geometry">
                        <mxPoint x="440" y="81" as="sourcePoint"/>
                        <mxPoint x="340" y="131" as="targetPoint"/>
                        <Array as="points">
                            <mxPoint x="265" y="206"/>
                            <mxPoint x="265" y="151"/>
                        </Array>
                    </mxGeometry>
                </mxCell>
                <mxCell id="86" value="登録" style="whiteSpace=wrap;html=1;align=center;" vertex="1" parent="1">
                    <mxGeometry x="280" y="305" width="100" height="30" as="geometry"/>
                </mxCell>
                <mxCell id="87" value="項目登録画面" style="shape=ext;margin=3;double=1;whiteSpace=wrap;html=1;align=center;" vertex="1" parent="1">
                    <mxGeometry x="280" y="275" width="100" height="30" as="geometry"/>
                </mxCell>
                <mxCell id="88" value="" style="endArrow=classic;html=1;exitX=1;exitY=0.25;exitDx=0;exitDy=0;entryX=1;entryY=0.5;entryDx=0;entryDy=0;edgeStyle=orthogonalEdgeStyle;" edge="1" parent="1" source="86" target="87">
                    <mxGeometry width="50" height="50" relative="1" as="geometry">
                        <mxPoint x="440" y="81" as="sourcePoint"/>
                        <mxPoint x="340" y="131" as="targetPoint"/>
                    </mxGeometry>
                </mxCell>
                <mxCell id="89" value="" style="endArrow=classic;html=1;exitX=0.44;exitY=0.967;exitDx=0;exitDy=0;entryX=0.25;entryY=0;entryDx=0;entryDy=0;edgeStyle=orthogonalEdgeStyle;exitPerimeter=0;" edge="1" parent="1" source="3" target="75">
                    <mxGeometry width="50" height="50" relative="1" as="geometry">
                        <mxPoint x="134" y="80" as="sourcePoint"/>
                        <mxPoint x="135" y="130" as="targetPoint"/>
                    </mxGeometry>
                </mxCell>
                <mxCell id="90" value="&lt;font style=&quot;font-size: 10px;&quot;&gt;成功&lt;/font&gt;" style="text;html=1;strokeColor=none;fillColor=none;align=center;verticalAlign=middle;whiteSpace=wrap;rounded=0;" vertex="1" parent="1">
                    <mxGeometry x="237" y="316" width="60" height="30" as="geometry"/>
                </mxCell>
                <mxCell id="91" value="&lt;font style=&quot;font-size: 10px;&quot;&gt;失敗&lt;/font&gt;" style="text;html=1;strokeColor=none;fillColor=none;align=center;verticalAlign=middle;whiteSpace=wrap;rounded=0;" vertex="1" parent="1">
                    <mxGeometry x="365" y="308.5" width="60" height="30" as="geometry"/>
                </mxCell>
                <mxCell id="92" value="" style="endArrow=classic;html=1;exitX=0.5;exitY=1;exitDx=0;exitDy=0;entryX=0.5;entryY=0;entryDx=0;entryDy=0;edgeStyle=orthogonalEdgeStyle;" edge="1" parent="1" source="82" target="87">
                    <mxGeometry width="50" height="50" relative="1" as="geometry">
                        <mxPoint x="229" y="79.00999999999999" as="sourcePoint"/>
                        <mxPoint x="315" y="131" as="targetPoint"/>
                    </mxGeometry>
                </mxCell>
                <mxCell id="93" value="" style="endArrow=classic;html=1;exitX=1;exitY=0.5;exitDx=0;exitDy=0;entryX=1;entryY=0.5;entryDx=0;entryDy=0;edgeStyle=orthogonalEdgeStyle;" edge="1" parent="1" source="76" target="79">
                    <mxGeometry width="50" height="50" relative="1" as="geometry">
                        <mxPoint x="229" y="79.00999999999999" as="sourcePoint"/>
                        <mxPoint x="315" y="131" as="targetPoint"/>
                        <Array as="points">
                            <mxPoint x="410" y="176"/>
                            <mxPoint x="410" y="379"/>
                        </Array>
                    </mxGeometry>
                </mxCell>
                <mxCell id="94" value="割勘計算" style="whiteSpace=wrap;html=1;align=center;" vertex="1" parent="1">
                    <mxGeometry x="470" y="40" width="100" height="30" as="geometry"/>
                </mxCell>
                <mxCell id="95" value="割勘一覧画面" style="shape=ext;margin=3;double=1;whiteSpace=wrap;html=1;align=center;" vertex="1" parent="1">
                    <mxGeometry x="620" y="130" width="100" height="40" as="geometry"/>
                </mxCell>
                <mxCell id="96" value="" style="endArrow=classic;html=1;exitX=0.5;exitY=1;exitDx=0;exitDy=0;edgeStyle=orthogonalEdgeStyle;entryX=0.5;entryY=0;entryDx=0;entryDy=0;" edge="1" parent="1" source="94" target="95">
                    <mxGeometry width="50" height="50" relative="1" as="geometry">
                        <mxPoint x="360" y="80" as="sourcePoint"/>
                        <mxPoint x="500" y="130" as="targetPoint"/>
                        <Array as="points">
                            <mxPoint x="580" y="70"/>
                            <mxPoint x="580" y="100"/>
                            <mxPoint x="670" y="100"/>
                        </Array>
                    </mxGeometry>
                </mxCell>
                <mxCell id="97" value="年別円グラフ" style="whiteSpace=wrap;html=1;align=center;" vertex="1" parent="1">
                    <mxGeometry x="480" y="311" width="100" height="30" as="geometry"/>
                </mxCell>
                <mxCell id="98" value="年別棒折れ線グラフ" style="whiteSpace=wrap;html=1;align=center;" vertex="1" parent="1">
                    <mxGeometry x="480" y="341" width="100" height="30" as="geometry"/>
                </mxCell>
                <mxCell id="99" value="月別円&lt;br&gt;グラフ" style="whiteSpace=wrap;html=1;align=center;" vertex="1" parent="1">
                    <mxGeometry x="480" y="450" width="100" height="30" as="geometry"/>
                </mxCell>
                <mxCell id="100" value="年別円グラフ画面" style="shape=ext;margin=3;double=1;whiteSpace=wrap;html=1;align=center;" vertex="1" parent="1">
                    <mxGeometry x="480" y="410" width="100" height="40" as="geometry"/>
                </mxCell>
                <mxCell id="101" value="月別棒折れ線&lt;br&gt;グラフ" style="whiteSpace=wrap;html=1;align=center;" vertex="1" parent="1">
                    <mxGeometry x="480" y="480" width="100" height="30" as="geometry"/>
                </mxCell>
                <mxCell id="102" value="年別棒折れ線グラフ" style="whiteSpace=wrap;html=1;align=center;" vertex="1" parent="1">
                    <mxGeometry x="480" y="510" width="100" height="30" as="geometry"/>
                </mxCell>
                <mxCell id="103" value="月別円&lt;br&gt;グラフ" style="whiteSpace=wrap;html=1;align=center;" vertex="1" parent="1">
                    <mxGeometry x="640" y="450" width="100" height="30" as="geometry"/>
                </mxCell>
                <mxCell id="104" value="年別棒折れ線グラフ画面" style="shape=ext;margin=3;double=1;whiteSpace=wrap;html=1;align=center;" vertex="1" parent="1">
                    <mxGeometry x="640" y="410" width="100" height="40" as="geometry"/>
                </mxCell>
                <mxCell id="105" value="月別棒折れ線&lt;br&gt;グラフ" style="whiteSpace=wrap;html=1;align=center;" vertex="1" parent="1">
                    <mxGeometry x="640" y="480" width="100" height="30" as="geometry"/>
                </mxCell>
                <mxCell id="106" value="年別円グラフ" style="whiteSpace=wrap;html=1;align=center;" vertex="1" parent="1">
                    <mxGeometry x="640" y="510" width="100" height="30" as="geometry"/>
                </mxCell>
                <mxCell id="107" value="月別円&lt;br&gt;グラフ" style="whiteSpace=wrap;html=1;align=center;" vertex="1" parent="1">
                    <mxGeometry x="640" y="280" width="100" height="30" as="geometry"/>
                </mxCell>
                <mxCell id="108" value="月別棒折れ線グラフ画面" style="shape=ext;margin=3;double=1;whiteSpace=wrap;html=1;align=center;" vertex="1" parent="1">
                    <mxGeometry x="640" y="240" width="100" height="40" as="geometry"/>
                </mxCell>
                <mxCell id="109" value="年別円グラフ" style="whiteSpace=wrap;html=1;align=center;" vertex="1" parent="1">
                    <mxGeometry x="640" y="310" width="100" height="30" as="geometry"/>
                </mxCell>
                <mxCell id="110" value="年別棒折れ線グラフ" style="whiteSpace=wrap;html=1;align=center;" vertex="1" parent="1">
                    <mxGeometry x="640" y="340" width="100" height="30" as="geometry"/>
                </mxCell>
                <mxCell id="111" value="" style="endArrow=classic;html=1;exitX=0.75;exitY=1;exitDx=0;exitDy=0;edgeStyle=orthogonalEdgeStyle;entryX=0.5;entryY=0;entryDx=0;entryDy=0;" edge="1" parent="1" source="5" target="38">
                    <mxGeometry width="50" height="50" relative="1" as="geometry">
                        <mxPoint x="360" y="80" as="sourcePoint"/>
                        <mxPoint x="500" y="130" as="targetPoint"/>
                        <Array as="points">
                            <mxPoint x="445" y="100"/>
                            <mxPoint x="570" y="100"/>
                            <mxPoint x="570" y="230"/>
                            <mxPoint x="530" y="230"/>
                        </Array>
                    </mxGeometry>
                </mxCell>
                <mxCell id="112" value="" style="endArrow=classic;html=1;exitX=1;exitY=0.5;exitDx=0;exitDy=0;edgeStyle=orthogonalEdgeStyle;entryX=0;entryY=0.5;entryDx=0;entryDy=0;" edge="1" parent="1" source="37" target="108">
                    <mxGeometry width="50" height="50" relative="1" as="geometry">
                        <mxPoint x="780" y="65" as="sourcePoint"/>
                        <mxPoint x="1003" y="142" as="targetPoint"/>
                        <Array as="points">
                            <mxPoint x="610" y="296"/>
                            <mxPoint x="610" y="260"/>
                        </Array>
                    </mxGeometry>
                </mxCell>
                <mxCell id="113" value="" style="endArrow=classic;html=1;exitX=1;exitY=0.5;exitDx=0;exitDy=0;edgeStyle=orthogonalEdgeStyle;entryX=1;entryY=0.5;entryDx=0;entryDy=0;" edge="1" parent="1" source="97" target="100">
                    <mxGeometry width="50" height="50" relative="1" as="geometry">
                        <mxPoint x="590" y="306" as="sourcePoint"/>
                        <mxPoint x="650" y="270" as="targetPoint"/>
                        <Array as="points">
                            <mxPoint x="600" y="326"/>
                            <mxPoint x="600" y="430"/>
                        </Array>
                    </mxGeometry>
                </mxCell>
                <mxCell id="114" value="" style="endArrow=classic;html=1;exitX=1;exitY=0.5;exitDx=0;exitDy=0;edgeStyle=orthogonalEdgeStyle;entryX=0;entryY=0.5;entryDx=0;entryDy=0;" edge="1" parent="1" source="98" target="104">
                    <mxGeometry width="50" height="50" relative="1" as="geometry">
                        <mxPoint x="590" y="336" as="sourcePoint"/>
                        <mxPoint x="590" y="440" as="targetPoint"/>
                        <Array as="points">
                            <mxPoint x="620" y="356"/>
                            <mxPoint x="620" y="430"/>
                        </Array>
                    </mxGeometry>
                </mxCell>
                <mxCell id="115" value="" style="endArrow=classic;html=1;exitX=0;exitY=0.5;exitDx=0;exitDy=0;edgeStyle=orthogonalEdgeStyle;entryX=1;entryY=0.5;entryDx=0;entryDy=0;" edge="1" parent="1" source="107" target="38">
                    <mxGeometry width="50" height="50" relative="1" as="geometry">
                        <mxPoint x="590" y="366" as="sourcePoint"/>
                        <mxPoint x="650" y="440" as="targetPoint"/>
                        <Array as="points">
                            <mxPoint x="640" y="290"/>
                            <mxPoint x="600" y="290"/>
                            <mxPoint x="600" y="261"/>
                        </Array>
                    </mxGeometry>
                </mxCell>
                <mxCell id="116" value="" style="endArrow=classic;html=1;exitX=0;exitY=0.5;exitDx=0;exitDy=0;edgeStyle=orthogonalEdgeStyle;entryX=1;entryY=0.5;entryDx=0;entryDy=0;" edge="1" parent="1" source="109" target="100">
                    <mxGeometry width="50" height="50" relative="1" as="geometry">
                        <mxPoint x="590" y="336" as="sourcePoint"/>
                        <mxPoint x="590" y="440" as="targetPoint"/>
                        <Array as="points">
                            <mxPoint x="600" y="325"/>
                            <mxPoint x="600" y="430"/>
                        </Array>
                    </mxGeometry>
                </mxCell>
                <mxCell id="117" value="" style="endArrow=classic;html=1;exitX=1;exitY=0.5;exitDx=0;exitDy=0;edgeStyle=orthogonalEdgeStyle;entryX=1;entryY=0.5;entryDx=0;entryDy=0;" edge="1" parent="1" source="110" target="104">
                    <mxGeometry width="50" height="50" relative="1" as="geometry">
                        <mxPoint x="590" y="306" as="sourcePoint"/>
                        <mxPoint x="650" y="270" as="targetPoint"/>
                        <Array as="points">
                            <mxPoint x="760" y="355"/>
                            <mxPoint x="760" y="430"/>
                        </Array>
                    </mxGeometry>
                </mxCell>
                <mxCell id="118" value="" style="endArrow=classic;html=1;edgeStyle=orthogonalEdgeStyle;entryX=0;entryY=0.5;entryDx=0;entryDy=0;" edge="1" parent="1" target="38">
                    <mxGeometry width="50" height="50" relative="1" as="geometry">
                        <mxPoint x="740" y="460" as="sourcePoint"/>
                        <mxPoint x="750" y="540" as="targetPoint"/>
                        <Array as="points">
                            <mxPoint x="740" y="460"/>
                            <mxPoint x="770" y="460"/>
                            <mxPoint x="770" y="590"/>
                            <mxPoint x="450" y="590"/>
                            <mxPoint x="450" y="261"/>
                        </Array>
                    </mxGeometry>
                </mxCell>
                <mxCell id="119" value="" style="endArrow=classic;html=1;exitX=0;exitY=0.5;exitDx=0;exitDy=0;edgeStyle=orthogonalEdgeStyle;entryX=0;entryY=0.5;entryDx=0;entryDy=0;" edge="1" parent="1" source="99" target="38">
                    <mxGeometry width="50" height="50" relative="1" as="geometry">
                        <mxPoint x="590" y="366" as="sourcePoint"/>
                        <mxPoint x="650" y="440" as="targetPoint"/>
                        <Array as="points">
                            <mxPoint x="450" y="465"/>
                            <mxPoint x="450" y="261"/>
                        </Array>
                    </mxGeometry>
                </mxCell>
                <mxCell id="120" value="" style="endArrow=classic;html=1;edgeStyle=orthogonalEdgeStyle;entryX=1;entryY=0.5;entryDx=0;entryDy=0;exitX=1;exitY=0.5;exitDx=0;exitDy=0;" edge="1" parent="1" source="105" target="108">
                    <mxGeometry width="50" height="50" relative="1" as="geometry">
                        <mxPoint x="750" y="470" as="sourcePoint"/>
                        <mxPoint x="490" y="271" as="targetPoint"/>
                        <Array as="points">
                            <mxPoint x="780" y="495"/>
                            <mxPoint x="780" y="260"/>
                        </Array>
                    </mxGeometry>
                </mxCell>
                <mxCell id="121" value="" style="endArrow=classic;html=1;edgeStyle=orthogonalEdgeStyle;exitX=0;exitY=0.5;exitDx=0;exitDy=0;" edge="1" parent="1" source="101">
                    <mxGeometry width="50" height="50" relative="1" as="geometry">
                        <mxPoint x="750" y="505" as="sourcePoint"/>
                        <mxPoint x="740" y="260" as="targetPoint"/>
                        <Array as="points">
                            <mxPoint x="470" y="495"/>
                            <mxPoint x="470" y="560"/>
                            <mxPoint x="780" y="560"/>
                            <mxPoint x="780" y="260"/>
                        </Array>
                    </mxGeometry>
                </mxCell>
                <mxCell id="122" value="" style="endArrow=classic;html=1;exitX=0;exitY=0.25;exitDx=0;exitDy=0;edgeStyle=orthogonalEdgeStyle;entryX=1;entryY=0.5;entryDx=0;entryDy=0;" edge="1" parent="1" source="106" target="100">
                    <mxGeometry width="50" height="50" relative="1" as="geometry">
                        <mxPoint x="590" y="366" as="sourcePoint"/>
                        <mxPoint x="620" y="440" as="targetPoint"/>
                        <Array as="points">
                            <mxPoint x="610" y="518"/>
                            <mxPoint x="610" y="430"/>
                        </Array>
                    </mxGeometry>
                </mxCell>
                <mxCell id="123" value="" style="endArrow=classic;html=1;exitX=1;exitY=0.5;exitDx=0;exitDy=0;edgeStyle=orthogonalEdgeStyle;entryX=0;entryY=0.5;entryDx=0;entryDy=0;" edge="1" parent="1" source="102" target="104">
                    <mxGeometry width="50" height="50" relative="1" as="geometry">
                        <mxPoint x="650" y="527.5" as="sourcePoint"/>
                        <mxPoint x="590" y="440" as="targetPoint"/>
                        <Array as="points">
                            <mxPoint x="580" y="528"/>
                            <mxPoint x="620" y="528"/>
                            <mxPoint x="620" y="430"/>
                        </Array>
                    </mxGeometry>
                </mxCell>
                <mxCell id="124" value="月別棒折れ線&lt;br&gt;グラフ" style="whiteSpace=wrap;html=1;align=center;" vertex="1" parent="1">
                    <mxGeometry x="480" y="282" width="100" height="30" as="geometry"/>
                </mxCell>
                <mxCell id="125" value="月別円グラフ画面" style="shape=ext;margin=3;double=1;whiteSpace=wrap;html=1;align=center;" vertex="1" parent="1">
                    <mxGeometry x="480" y="242" width="100" height="40" as="geometry"/>
                </mxCell>
                <mxCell id="126" value="年別円グラフ" style="whiteSpace=wrap;html=1;align=center;" vertex="1" parent="1">
                    <mxGeometry x="480" y="312" width="100" height="30" as="geometry"/>
                </mxCell>
                <mxCell id="127" value="年別棒折れ線グラフ" style="whiteSpace=wrap;html=1;align=center;" vertex="1" parent="1">
                    <mxGeometry x="480" y="342" width="100" height="30" as="geometry"/>
                </mxCell>
                <mxCell id="128" value="月別円&lt;br&gt;グラフ" style="whiteSpace=wrap;html=1;align=center;" vertex="1" parent="1">
                    <mxGeometry x="480" y="451" width="100" height="30" as="geometry"/>
                </mxCell>
                <mxCell id="129" value="年別円グラフ画面" style="shape=ext;margin=3;double=1;whiteSpace=wrap;html=1;align=center;" vertex="1" parent="1">
                    <mxGeometry x="480" y="411" width="100" height="40" as="geometry"/>
                </mxCell>
                <mxCell id="130" value="月別棒折れ線&lt;br&gt;グラフ" style="whiteSpace=wrap;html=1;align=center;" vertex="1" parent="1">
                    <mxGeometry x="480" y="481" width="100" height="30" as="geometry"/>
                </mxCell>
                <mxCell id="131" value="年別棒折れ線グラフ" style="whiteSpace=wrap;html=1;align=center;" vertex="1" parent="1">
                    <mxGeometry x="480" y="511" width="100" height="30" as="geometry"/>
                </mxCell>
                <mxCell id="132" value="月別円&lt;br&gt;グラフ" style="whiteSpace=wrap;html=1;align=center;" vertex="1" parent="1">
                    <mxGeometry x="640" y="451" width="100" height="30" as="geometry"/>
                </mxCell>
                <mxCell id="133" value="年別棒折れ線グラフ画面" style="shape=ext;margin=3;double=1;whiteSpace=wrap;html=1;align=center;" vertex="1" parent="1">
                    <mxGeometry x="640" y="411" width="100" height="40" as="geometry"/>
                </mxCell>
                <mxCell id="134" value="月別棒折れ線&lt;br&gt;グラフ" style="whiteSpace=wrap;html=1;align=center;" vertex="1" parent="1">
                    <mxGeometry x="640" y="481" width="100" height="30" as="geometry"/>
                </mxCell>
                <mxCell id="135" value="年別円グラフ" style="whiteSpace=wrap;html=1;align=center;" vertex="1" parent="1">
                    <mxGeometry x="640" y="511" width="100" height="30" as="geometry"/>
                </mxCell>
                <mxCell id="136" value="月別円&lt;br&gt;グラフ" style="whiteSpace=wrap;html=1;align=center;" vertex="1" parent="1">
                    <mxGeometry x="640" y="281" width="100" height="30" as="geometry"/>
                </mxCell>
                <mxCell id="137" value="月別棒折れ線グラフ画面" style="shape=ext;margin=3;double=1;whiteSpace=wrap;html=1;align=center;" vertex="1" parent="1">
                    <mxGeometry x="640" y="241" width="100" height="40" as="geometry"/>
                </mxCell>
                <mxCell id="138" value="年別円グラフ" style="whiteSpace=wrap;html=1;align=center;" vertex="1" parent="1">
                    <mxGeometry x="640" y="311" width="100" height="30" as="geometry"/>
                </mxCell>
                <mxCell id="139" value="年別棒折れ線グラフ" style="whiteSpace=wrap;html=1;align=center;" vertex="1" parent="1">
                    <mxGeometry x="640" y="341" width="100" height="30" as="geometry"/>
                </mxCell>
                <mxCell id="140" value="" style="endArrow=classic;html=1;exitX=1;exitY=0.5;exitDx=0;exitDy=0;edgeStyle=orthogonalEdgeStyle;entryX=0;entryY=0.5;entryDx=0;entryDy=0;" edge="1" parent="1" source="124" target="137">
                    <mxGeometry width="50" height="50" relative="1" as="geometry">
                        <mxPoint x="780" y="66" as="sourcePoint"/>
                        <mxPoint x="1003" y="143" as="targetPoint"/>
                        <Array as="points">
                            <mxPoint x="610" y="297"/>
                            <mxPoint x="610" y="261"/>
                        </Array>
                    </mxGeometry>
                </mxCell>
                <mxCell id="141" value="" style="endArrow=classic;html=1;exitX=1;exitY=0.5;exitDx=0;exitDy=0;edgeStyle=orthogonalEdgeStyle;entryX=1;entryY=0.5;entryDx=0;entryDy=0;" edge="1" parent="1" source="126" target="129">
                    <mxGeometry width="50" height="50" relative="1" as="geometry">
                        <mxPoint x="590" y="307" as="sourcePoint"/>
                        <mxPoint x="650" y="271" as="targetPoint"/>
                        <Array as="points">
                            <mxPoint x="600" y="327"/>
                            <mxPoint x="600" y="431"/>
                        </Array>
                    </mxGeometry>
                </mxCell>
                <mxCell id="142" value="" style="endArrow=classic;html=1;exitX=1;exitY=0.5;exitDx=0;exitDy=0;edgeStyle=orthogonalEdgeStyle;entryX=0;entryY=0.5;entryDx=0;entryDy=0;" edge="1" parent="1" source="127" target="133">
                    <mxGeometry width="50" height="50" relative="1" as="geometry">
                        <mxPoint x="590" y="337" as="sourcePoint"/>
                        <mxPoint x="590" y="441" as="targetPoint"/>
                        <Array as="points">
                            <mxPoint x="620" y="357"/>
                            <mxPoint x="620" y="431"/>
                        </Array>
                    </mxGeometry>
                </mxCell>
                <mxCell id="143" value="" style="endArrow=classic;html=1;exitX=0;exitY=0.5;exitDx=0;exitDy=0;edgeStyle=orthogonalEdgeStyle;entryX=1;entryY=0.5;entryDx=0;entryDy=0;" edge="1" parent="1" source="136" target="125">
                    <mxGeometry width="50" height="50" relative="1" as="geometry">
                        <mxPoint x="590" y="367" as="sourcePoint"/>
                        <mxPoint x="650" y="441" as="targetPoint"/>
                        <Array as="points">
                            <mxPoint x="640" y="291"/>
                            <mxPoint x="600" y="291"/>
                            <mxPoint x="600" y="262"/>
                        </Array>
                    </mxGeometry>
                </mxCell>
                <mxCell id="144" value="" style="endArrow=classic;html=1;exitX=0;exitY=0.5;exitDx=0;exitDy=0;edgeStyle=orthogonalEdgeStyle;entryX=1;entryY=0.5;entryDx=0;entryDy=0;" edge="1" parent="1" source="138" target="129">
                    <mxGeometry width="50" height="50" relative="1" as="geometry">
                        <mxPoint x="590" y="337" as="sourcePoint"/>
                        <mxPoint x="590" y="441" as="targetPoint"/>
                        <Array as="points">
                            <mxPoint x="600" y="326"/>
                            <mxPoint x="600" y="431"/>
                        </Array>
                    </mxGeometry>
                </mxCell>
                <mxCell id="145" value="" style="endArrow=classic;html=1;exitX=1;exitY=0.5;exitDx=0;exitDy=0;edgeStyle=orthogonalEdgeStyle;entryX=1;entryY=0.5;entryDx=0;entryDy=0;" edge="1" parent="1" source="139" target="133">
                    <mxGeometry width="50" height="50" relative="1" as="geometry">
                        <mxPoint x="590" y="307" as="sourcePoint"/>
                        <mxPoint x="650" y="271" as="targetPoint"/>
                        <Array as="points">
                            <mxPoint x="760" y="356"/>
                            <mxPoint x="760" y="431"/>
                        </Array>
                    </mxGeometry>
                </mxCell>
                <mxCell id="146" value="" style="endArrow=classic;html=1;edgeStyle=orthogonalEdgeStyle;entryX=0;entryY=0.5;entryDx=0;entryDy=0;" edge="1" parent="1" target="125">
                    <mxGeometry width="50" height="50" relative="1" as="geometry">
                        <mxPoint x="740" y="461" as="sourcePoint"/>
                        <mxPoint x="750" y="541" as="targetPoint"/>
                        <Array as="points">
                            <mxPoint x="740" y="461"/>
                            <mxPoint x="770" y="461"/>
                            <mxPoint x="770" y="591"/>
                            <mxPoint x="450" y="591"/>
                            <mxPoint x="450" y="262"/>
                        </Array>
                    </mxGeometry>
                </mxCell>
                <mxCell id="147" value="" style="endArrow=classic;html=1;exitX=0;exitY=0.5;exitDx=0;exitDy=0;edgeStyle=orthogonalEdgeStyle;entryX=0;entryY=0.5;entryDx=0;entryDy=0;" edge="1" parent="1" source="128" target="125">
                    <mxGeometry width="50" height="50" relative="1" as="geometry">
                        <mxPoint x="590" y="367" as="sourcePoint"/>
                        <mxPoint x="650" y="441" as="targetPoint"/>
                        <Array as="points">
                            <mxPoint x="450" y="466"/>
                            <mxPoint x="450" y="262"/>
                        </Array>
                    </mxGeometry>
                </mxCell>
                <mxCell id="148" value="" style="endArrow=classic;html=1;edgeStyle=orthogonalEdgeStyle;entryX=1;entryY=0.5;entryDx=0;entryDy=0;exitX=1;exitY=0.5;exitDx=0;exitDy=0;" edge="1" parent="1" source="134" target="137">
                    <mxGeometry width="50" height="50" relative="1" as="geometry">
                        <mxPoint x="750" y="471" as="sourcePoint"/>
                        <mxPoint x="490" y="272" as="targetPoint"/>
                        <Array as="points">
                            <mxPoint x="780" y="496"/>
                            <mxPoint x="780" y="261"/>
                        </Array>
                    </mxGeometry>
                </mxCell>
                <mxCell id="149" value="" style="endArrow=classic;html=1;exitX=0;exitY=0.25;exitDx=0;exitDy=0;edgeStyle=orthogonalEdgeStyle;entryX=1;entryY=0.5;entryDx=0;entryDy=0;" edge="1" parent="1" source="135" target="129">
                    <mxGeometry width="50" height="50" relative="1" as="geometry">
                        <mxPoint x="590" y="367" as="sourcePoint"/>
                        <mxPoint x="620" y="441" as="targetPoint"/>
                        <Array as="points">
                            <mxPoint x="610" y="519"/>
                            <mxPoint x="610" y="431"/>
                        </Array>
                    </mxGeometry>
                </mxCell>
                <mxCell id="150" value="" style="endArrow=classic;html=1;exitX=1;exitY=0.5;exitDx=0;exitDy=0;edgeStyle=orthogonalEdgeStyle;entryX=0;entryY=0.5;entryDx=0;entryDy=0;" edge="1" parent="1" source="131" target="133">
                    <mxGeometry width="50" height="50" relative="1" as="geometry">
                        <mxPoint x="650" y="528.5" as="sourcePoint"/>
                        <mxPoint x="590" y="441" as="targetPoint"/>
                        <Array as="points">
                            <mxPoint x="580" y="529"/>
                            <mxPoint x="620" y="529"/>
                            <mxPoint x="620" y="431"/>
                        </Array>
                    </mxGeometry>
                </mxCell>
            </root>
        </mxGraphModel>
    </diagram>
</mxfile>